<?xml version="1.0" standalone="no"?>
<!DOCTYPE svg PUBLIC "-//W3C//DTD SVG 20010904//EN"
 "http://www.w3.org/TR/2001/REC-SVG-20010904/DTD/svg10.dtd">
<svg version="1.0" xmlns="http://www.w3.org/2000/svg"
 width="169.000000pt" height="169.000000pt" viewBox="0 0 169.000000 169.000000"
 preserveAspectRatio="xMidYMid meet">

<g transform="translate(0.000000,169.000000) scale(0.100000,-0.100000)"
fill="#000000" stroke="none">
<path d="M795 1169 c-6 -19 -8 -19 -24 -5 -23 21 -28 20 -34 -6 -6 -21 -7 -21
-25 -5 -25 23 -32 21 -32 -8 0 -25 -14 -33 -25 -15 -10 16 -23 12 -30 -11 -5
-16 -12 -19 -31 -15 -22 6 -24 4 -18 -20 7 -25 5 -26 -21 -20 -25 6 -27 5 -23
-18 4 -22 2 -26 -18 -26 -27 0 -28 -3 -14 -30 8 -15 5 -19 -17 -25 -19 -4 -23
-9 -14 -18 17 -17 13 -35 -9 -42 -20 -6 -20 -7 1 -24 19 -15 20 -18 5 -30 -22
-18 -20 -28 6 -34 21 -6 21 -7 5 -25 -23 -25 -21 -32 8 -32 22 0 24 -3 15 -19
-14 -28 -13 -31 15 -31 22 0 25 -3 19 -26 -6 -25 -5 -26 21 -20 26 7 27 5 21
-20 -6 -24 -5 -26 18 -20 20 5 26 1 33 -18 7 -23 10 -23 28 -10 18 14 19 16 3
25 -31 17 -55 73 -62 139 -5 58 -3 71 23 125 46 97 94 125 214 125 134 0 206
-42 245 -144 33 -88 15 -202 -40 -240 -22 -16 -22 -16 -3 -30 18 -13 20 -13
23 11 3 21 7 24 28 19 21 -6 24 -3 24 19 0 22 3 25 25 19 24 -6 25 -4 19 20
-5 23 -3 26 20 26 23 0 25 2 16 19 -14 27 -13 31 8 31 28 0 34 11 16 31 -14
16 -14 18 6 29 20 11 20 13 6 29 -14 16 -14 19 2 34 16 17 16 18 -6 23 -26 7
-27 12 -6 35 15 17 14 18 -10 25 -21 5 -24 9 -16 24 14 27 13 30 -15 30 -22 0
-25 3 -19 25 6 24 4 25 -20 19 -23 -5 -26 -3 -26 20 0 23 -3 26 -25 20 -21 -5
-25 -3 -25 15 0 24 -4 25 -30 11 -15 -8 -19 -5 -24 16 -7 24 -8 25 -25 10 -24
-21 -28 -20 -35 10 l-7 25 -18 -22 -18 -23 -12 23 c-12 22 -13 22 -33 5 -19
-18 -20 -18 -29 -1 -13 23 -26 22 -34 -4z"/>
<path d="M682 858 c-30 -30 -2 -69 44 -60 28 5 32 33 8 56 -19 19 -36 20 -52
4z m38 -18 c0 -5 -4 -10 -10 -10 -5 0 -10 5 -10 10 0 6 5 10 10 10 6 0 10 -4
10 -10z"/>
<path d="M952 858 c-5 -7 -12 -22 -14 -32 -4 -23 37 -38 65 -24 21 11 23 40 2
32 -10 -4 -15 0 -15 11 0 10 5 13 12 9 7 -4 8 -3 4 4 -9 16 -41 15 -54 0z"/>
<path d="M816 754 c-22 -21 -20 -33 8 -45 24 -11 66 2 66 21 0 13 -30 40 -45
40 -7 0 -21 -7 -29 -16z"/>
<path d="M680 580 c0 -23 13 -26 29 -6 9 11 8 15 -5 20 -23 9 -24 8 -24 -14z"/>
<path d="M982 591 c-10 -6 -10 -10 3 -21 8 -7 15 -10 15 -7 0 3 3 12 6 21 7
17 -3 20 -24 7z"/>
<path d="M750 558 c-26 -10 -40 -25 -40 -46 0 -10 16 -12 63 -10 49 2 61 6 58
18 -2 8 -4 21 -4 28 0 6 -2 10 -5 8 -2 -3 -14 -1 -26 3 -11 5 -32 4 -46 -1z"/>
<path d="M893 559 c-13 -5 -23 -5 -24 -1 -1 4 -4 -4 -8 -18 -5 -14 -6 -28 -4
-32 7 -14 123 -9 123 5 -1 34 -50 60 -87 46z"/>
</g>
</svg>
